<?xml version="1.0" encoding="UTF-8"?><svg id="Capa_2" xmlns="http://www.w3.org/2000/svg" viewBox="0 0 499.31 112.62"><defs><style>.cls-1{fill:#fff;}.cls-2{fill:#00e3cc;}</style></defs><g id="Capa_1-2"><path class="cls-2" d="M23.81,50.24l-12.86-.07-.12,22.98-10.83-.06L.38,2.23l25.72.14c8.57.05,15.04,2.09,19.41,6.13,4.37,4.04,6.53,10.01,6.48,17.9-.02,4.12-.7,7.73-2.03,10.82-1.33,3.1-3.25,5.62-5.76,7.56-2.51,1.94-5.55,3.28-9.13,4l17.19,23.18v1.42s-12.36-.07-12.36-.07l-16.08-23.07ZM33.53,41.99c2.4-1.13,4.17-2.97,5.29-5.49,1.13-2.52,1.7-5.95,1.72-10.27.02-4.05-.5-7.29-1.57-9.73-1.07-2.44-2.78-4.23-5.13-5.39-2.36-1.16-5.49-1.75-9.41-1.77l-13.26-.07-.18,34.32,13.06.07c3.91.02,7.07-.53,9.48-1.67Z"/><path class="cls-2" d="M65.62,71.47c-3.97-2.01-6.94-4.95-8.91-8.8-1.97-3.86-2.94-8.69-2.91-14.49s.97-10.27,2.81-14.21c1.84-3.94,4.59-6.91,8.25-8.92,3.66-2.01,8.08-2.99,13.28-2.97,4.93.03,8.97.99,12.13,2.9,3.16,1.91,5.42,4.91,6.79,9,1.36,4.09,1.89,9.34,1.59,15.75l-33.81-.18c.23,6.41,1.76,11.01,4.58,13.79s7.2,4.19,13.14,4.22c2.29.01,4.67-.16,7.14-.52,2.46-.36,4.88-.9,7.25-1.63l1.39,6.18c-2.77,1-5.68,1.74-8.72,2.23-3.04.49-6.15.73-9.32.71-5.81-.03-10.69-1.05-14.66-3.07ZM85.47,31.69c-1.68-2.47-4.37-3.72-8.08-3.74s-6.81,1.31-8.88,4c-2.07,2.69-3.29,6.7-3.66,12.03l22.88-.18c.16-5.6-.59-9.64-2.26-12.11Z"/><path class="cls-2" d="M137.1,32.32c-1.55-1.63-4.04-2.45-7.48-2.47-2.3-.01-4.56.37-6.79,1.13-2.23.76-4.33,1.92-6.3,3.46l-.21,39.28-10.43-.06.27-50.42,5.37.03,3.92,5.59c2.44-2.08,5.22-3.68,8.33-4.82,3.11-1.13,6.42-1.69,9.93-1.67,5.33.03,9.34,1.32,12.03,3.86,2.69,2.55,4.02,6.32,3.99,11.31l-.19,36.35-10.33-.06.18-33.81c.02-3.51-.74-6.08-2.29-7.71Z"/><path class="cls-2" d="M181.88,74.57c-1.99.33-4.04.49-6.13.47-3.65-.02-6.49-.44-8.55-1.26-2.06-.82-3.55-2.16-4.48-4.02-.94-1.86-1.39-4.38-1.38-7.55l.17-32.2-6.17-.94.03-5.57,6.68.04.15-8.5,9.73-1.87-.06,10.43,15.59.08-.03,5.57-15.6.73-.17,31.49c-.01,2.43.48,4.15,1.49,5.17s2.79,1.53,5.36,1.55c2.29.01,4.93-.34,7.9-1.07l1.28,6.18c-1.89.53-3.84.96-5.83,1.28Z"/><path class="cls-2" d="M198.09,70.86c-2.72-2.88-4.06-6.92-4.04-12.12.02-3.58.69-6.54,2.02-8.9,1.33-2.35,3.41-4.12,6.25-5.28,2.84-1.16,6.42-1.74,10.74-1.71,2.23.01,4.42.14,6.58.39,2.16.25,4.18.58,6.07.99-.12-3.58-.64-6.35-1.58-8.31-.94-1.96-2.38-3.35-4.33-4.17-1.95-.82-4.55-1.24-7.79-1.26-2.29-.01-4.71.18-7.24.57-2.53.39-5.15,1.09-7.86,2.08l.04-7.9c5.41-1.66,11.15-2.47,17.22-2.44,5.26.03,9.5.78,12.69,2.24,3.2,1.47,5.53,3.79,7,6.97,1.47,3.18,2.19,7.47,2.16,12.87l-.16,29.46-5.67-.03-3.81-6.7c-1.9,2.49-4.28,4.38-7.12,5.68s-6.05,1.94-9.63,1.92c-5-.03-8.85-1.48-11.57-4.36ZM206.73,65.65c1.44,1.66,3.58,2.5,6.42,2.51,3.85.02,6.88-1.53,9.09-4.66,2.21-3.13,3.43-7.69,3.67-13.7-2.09-.42-3.96-.71-5.61-.89-1.65-.18-3.19-.27-4.61-.28-2.5-.01-4.56.35-6.18,1.08-1.62.73-2.85,1.88-3.66,3.42-.82,1.55-1.23,3.4-1.25,5.56-.02,2.97.7,5.29,2.14,6.95Z"/><path class="cls-2" d="M246.92,0l10.43.06-.4,74.41-10.43-.06.4-74.41Z"/><path class="cls-2" d="M319.29,3.93l44.95.24-.05,9.11-27.94-.15-.12,22.48,25.31.13-.05,9.01-25.31-.13-.16,30.27-17.01-.09.38-70.87Z"/><path class="cls-2" d="M365.04,71.75c-2.85-2.88-4.27-6.92-4.24-12.12.02-3.65.73-6.64,2.12-9,1.4-2.35,3.6-4.1,6.61-5.23,3.01-1.13,6.84-1.68,11.5-1.66,2.16.01,4.27.11,6.33.29,2.06.18,3.93.41,5.62.69-.19-2.63-.75-4.76-1.69-6.39-.94-1.63-2.36-2.81-4.28-3.57-1.92-.75-4.5-1.14-7.74-1.15-2.23-.01-4.66.16-7.29.52-2.63.36-5.51.93-8.61,1.73l.05-9.72c6.29-1.79,12.91-2.67,19.86-2.63,6.34.03,11.44.81,15.28,2.31,3.84,1.51,6.61,3.95,8.31,7.33,1.7,3.39,2.54,7.84,2.51,13.38l-.15,28.75-10.02-.05-4.42-7.21c-1.7,2.62-4.04,4.64-7.02,6.04-2.98,1.4-6.43,2.09-10.34,2.07-5.4-.03-9.53-1.48-12.38-4.37ZM378.85,64.99c.97,1.36,2.5,2.04,4.6,2.05,2.9.02,5.17-1.39,6.81-4.22s2.57-6.84,2.8-12.03c-1.48-.07-2.82-.18-4-.33-1.18-.14-2.21-.21-3.09-.22-1.89-.01-3.48.32-4.76.99-1.29.67-2.24,1.69-2.85,3.07-.61,1.38-.93,3.08-.94,5.11-.01,2.36.47,4.22,1.44,5.58ZM385.72.74l17.41.09v1.11s-13.16,17.14-13.16,17.14l-10.33-.06,6.07-18.29Z"/><path class="cls-2" d="M425.12,73.39c-4.17-2.08-7.31-5.08-9.42-9.01-2.11-3.92-3.14-8.62-3.11-14.09.03-5.74,1.15-10.59,3.37-14.56,2.21-3.97,5.52-6.96,9.92-8.96,4.4-2,9.77-2.99,16.11-2.95,2.43.01,4.77.13,7.03.34,2.26.22,4.54.6,6.83,1.15l-.05,8.5c-1.89-.48-3.69-.81-5.41-.99-1.72-.18-3.36-.27-4.91-.28-3.65-.02-6.63.57-8.97,1.77-2.34,1.2-4.03,3.12-5.09,5.74-1.06,2.63-1.6,6.03-1.62,10.22-.03,5.87,1.09,10.22,3.37,13.03,2.28,2.81,5.81,4.23,10.61,4.26,3.1.02,6.92-.5,11.45-1.56l1.68,7.91c-5.27,1.79-10.85,2.68-16.72,2.64s-10.9-1.09-15.07-3.17Z"/><path class="cls-2" d="M461.82,17.85c-1.38-.61-2.42-1.58-3.12-2.9s-1.05-2.92-1.04-4.81c.01-2.03.37-3.64,1.09-4.85s1.77-2.15,3.15-2.82c1.39-.67,3.16-.99,5.32-.98,2.02.01,3.74.36,5.16,1.04,1.41.68,2.47,1.63,3.17,2.85.7,1.22,1.05,2.84,1.04,4.87s-.39,3.58-1.14,4.85c-.75,1.28-1.83,2.22-3.26,2.82-1.42.6-3.14.89-5.17.88s-3.83-.32-5.21-.94ZM458.89,24.92l16.4.09-.27,50.62-16.4-.09.27-50.62Z"/><path class="cls-2" d="M482.81,1.26l16.5.09-.4,74.41-16.5-.09.4-74.41Z"/><path class="cls-2" d="M311.71,27.57c-3.09-5.22-7.96-9.4-13.68-11.44-8.8-3.13-19.25-1.05-26.18,5.22-9.94,9.01-10.86,22.27-5.27,33.95,3.73,7.8,17.12,27.01,27.26,20.66,7.55-4.73,13.72-11.61,17.61-19.62,2.94-6.07,4.58-12.94,3.57-19.62-.49-3.24-1.64-6.35-3.31-9.16ZM289.24,54.05c-7.36-.04-13.3-6.04-13.26-13.41s6.04-13.3,13.41-13.26,13.3,6.04,13.26,13.41-6.04,13.3-13.4,13.26Z"/><path class="cls-1" d="M311.71,27.57c-3.09-5.22-7.96-9.4-13.68-11.44-8.8-3.13-19.25-1.05-26.18,5.22-9.94,9.01-10.86,22.27-5.27,33.95,3.73,7.8,17.12,27.01,27.26,20.66,7.55-4.73,13.72-11.61,17.61-19.62,2.94-6.07,4.58-12.94,3.57-19.62-.49-3.24-1.64-6.35-3.31-9.16ZM289.24,54.05c-7.36-.04-13.3-6.04-13.26-13.41s6.04-13.3,13.41-13.26,13.3,6.04,13.26,13.41-6.04,13.3-13.4,13.26Z"/><path class="cls-2" d="M54.67,99.26h-6.46s0,4.42,0,4.42h6.04c.3,0,.46.16.46.46v.48c0,.3-.16.46-.46.46h-6.04s0,4.38,0,4.38h6.46c.3,0,.46.16.46.46v.48c0,.3-.16.46-.46.46h-7.5c-.3,0-.46-.17-.46-.47v-12.08c0-.3.17-.46.47-.46h7.5c.3,0,.46.17.46.47v.48c0,.3-.16.46-.46.46Z"/><path class="cls-2" d="M73.84,109.47c.3,0,.46.16.46.46v.48c0,.3-.16.46-.46.46h-7.46c-.3,0-.46-.17-.46-.47v-12.08c0-.3.17-.46.47-.46h.58c.3,0,.46.16.46.46v11.14s6.41,0,6.41,0Z"/><path class="cls-2" d="M105.12,109.49c.3,0,.46.16.46.46v.48c0,.3-.16.46-.46.46h-7.46c-.3,0-.46-.17-.46-.47v-12.08c0-.3.17-.46.47-.46h.58c.3,0,.46.16.46.46v11.14s6.41,0,6.41,0Z"/><path class="cls-2" d="M124.55,97.9h.6c.3,0,.46.16.46.46v8.02c0,2.64-1.81,4.68-4.91,4.68s-4.88-2.04-4.88-4.68v-8.02c0-.3.17-.46.47-.46h.58c.3,0,.46.16.46.46v7.88c0,2.14,1.35,3.34,3.37,3.34s3.38-1.2,3.38-3.34v-7.88c0-.3.17-.46.47-.46Z"/><path class="cls-2" d="M142.8,111.08c-3.86,0-6.5-2.81-6.5-6.67,0-3.86,2.65-6.66,6.51-6.66,2.12,0,3.84.84,4.98,2.22.18.24.14.48-.1.66l-.5.34c-.24.18-.44.14-.64-.08-.92-1.06-2.24-1.62-3.74-1.62-2.98,0-5,2.16-5,5.14,0,2.98,2.02,5.14,5,5.14,2.46,0,4.28-1.58,4.54-4.08h-4.14c-.3,0-.46-.16-.46-.46v-.48c0-.3.16-.46.46-.46h5.38c.3,0,.46.16.46.46v.18c-.12,3.7-2.49,6.36-6.25,6.36Z"/><path class="cls-2" d="M168.5,110.58l-1.16-2.84h-6.04s-1.16,2.84-1.16,2.84c-.1.26-.26.36-.52.36h-.64c-.34,0-.48-.22-.36-.54l4.99-12.1c.1-.26.26-.36.52-.36h.4c.26,0,.42.1.52.36l4.97,12.11c.12.32-.02.54-.36.54h-.64c-.26,0-.42-.1-.52-.36ZM166.77,106.34l-2.46-6.06-2.44,6.06h4.9Z"/><path class="cls-2" d="M189.64,110.95h-.74c-.24,0-.42-.08-.56-.3l-3.3-4.78h-3.18s0,4.62,0,4.62c0,.3-.16.46-.46.46h-.58c-.3,0-.46-.16-.46-.46v-12.08c0-.3.17-.46.47-.46h5.54c1.96,0,3.72,1.57,3.72,3.97,0,2.22-1.5,3.72-3.28,3.94l3.14,4.54c.22.3.08.56-.3.56ZM181.87,104.41h4.28c1.42,0,2.42-1.1,2.42-2.5,0-1.38-1-2.48-2.42-2.48h-4.28s0,4.98,0,4.98Z"/><path class="cls-2" d="M222.94,110.26l1.34,1.8c.22.3.1.56-.28.56h-.78c-.24,0-.4-.08-.54-.28l-1.12-1.48c-.62.18-1.32.28-2.04.28-3.86,0-6.5-2.81-6.5-6.67,0-3.86,2.69-6.66,6.51-6.66,3.88,0,6.48,2.81,6.48,6.67,0,2.56-1.16,4.66-3.06,5.78ZM220.58,109.51l-1.12-1.5c-.22-.3-.1-.56.28-.56h.76c.24,0,.42.08.56.28l.96,1.28c1.56-.84,2.48-2.5,2.48-4.54,0-2.98-1.98-5.14-4.98-5.14-2.98,0-5,2.16-5.01,5.14,0,2.98,2.02,5.14,5,5.14.36,0,.72-.04,1.06-.1Z"/><path class="cls-2" d="M245.35,97.99h.6c.3,0,.46.16.46.46v8.02c0,2.64-1.81,4.68-4.91,4.68s-4.88-2.04-4.88-4.68v-8.02c0-.3.17-.46.47-.46h.58c.3,0,.46.16.46.46v7.88c0,2.14,1.35,3.34,3.37,3.34,2.02,0,3.38-1.2,3.38-3.34v-7.88c0-.3.17-.46.47-.46Z"/><path class="cls-2" d="M265.27,99.4h-6.46s0,4.42,0,4.42h6.04c.3,0,.46.16.46.46v.48c0,.3-.16.46-.46.46h-6.04s0,4.38,0,4.38h6.46c.3,0,.46.16.46.46v.48c0,.3-.16.46-.46.46h-7.5c-.3,0-.46-.17-.46-.47v-12.08c0-.3.17-.46.47-.46h7.5c.3,0,.46.17.46.47v.48c0,.3-.16.46-.46.46Z"/><path class="cls-2" d="M297.87,98.02h.6c.3,0,.46.16.46.46v12.08c0,.3-.17.46-.47.46h-.66c-.24,0-.42-.08-.56-.3l-6.79-10.13v9.96c0,.3-.17.46-.47.46h-.6c-.3,0-.46-.16-.46-.46v-12.08c0-.3.17-.46.47-.46h.64c.24,0,.42.08.56.3l6.81,10.13v-9.96c0-.3.17-.46.47-.46Z"/><path class="cls-2" d="M317.79,99.44h-6.46s0,4.42,0,4.42h6.04c.3,0,.46.16.46.46v.48c0,.3-.16.46-.46.46h-6.04s0,4.38,0,4.38h6.46c.3,0,.46.16.46.46v.48c0,.3-.16.46-.46.46h-7.5c-.3,0-.46-.17-.46-.47v-12.08c0-.3.17-.46.47-.46h7.5c.3,0,.46.17.46.47v.48c0,.3-.16.46-.46.46Z"/><path class="cls-2" d="M338.71,101.03c-.84-.96-2.16-1.62-3.76-1.62-2.98,0-5,2.16-5.01,5.14,0,2.98,2.02,5.14,5,5.14,1.6,0,2.92-.68,3.76-1.66.2-.24.4-.26.64-.08l.5.36c.24.18.28.42.08.64-1.12,1.4-2.86,2.26-4.98,2.26-3.86,0-6.5-2.81-6.5-6.67,0-3.86,2.65-6.66,6.51-6.66,2.12,0,3.84.84,4.98,2.24.2.24.14.48-.1.66l-.48.34c-.24.16-.44.14-.64-.1Z"/><path class="cls-2" d="M358.65,99.47h-6.46s0,4.42,0,4.42h6.04c.3,0,.46.16.46.46v.48c0,.3-.16.46-.46.46h-6.04s0,4.38,0,4.38h6.46c.3,0,.46.16.46.46v.48c0,.3-.16.46-.46.46h-7.5c-.3,0-.46-.17-.46-.47v-12.08c0-.3.17-.46.47-.46h7.5c.3,0,.46.17.46.47v.48c0,.3-.16.46-.46.46Z"/><path class="cls-2" d="M369.54,108.05l.48-.32c.26-.16.46-.1.62.18.64,1.02,2.1,1.88,4,1.88,2.24,0,3.18-.84,3.18-2.34,0-1.7-2.54-2.1-3.72-2.44-1.26-.34-4.46-.88-4.46-3.56,0-2.44,2.08-3.6,4.86-3.6,2.18,0,3.96.96,4.62,2.2.14.24.08.44-.18.6l-.48.28c-.26.14-.44.08-.62-.16-.56-.78-1.88-1.42-3.5-1.42-1.94,0-3,.76-3,2.04,0,1.6,2.32,1.94,3.6,2.28,1.16.34,4.54,1.02,4.54,3.72,0,2.56-1.86,3.9-4.98,3.9-2.58,0-4.4-1.1-5.16-2.62-.12-.24-.02-.46.2-.62Z"/><path class="cls-2" d="M391.04,111.09h-.58c-.3,0-.46-.16-.46-.46v-12.08c0-.3.17-.46.47-.46h.58c.3,0,.46.16.46.46v12.08c0,.3-.17.46-.47.46Z"/><path class="cls-2" d="M412.01,98.56v.48c0,.3-.16.46-.46.46h-3.78s0,11.14,0,11.14c0,.3-.16.46-.46.46h-.58c-.3,0-.46-.16-.46-.46v-11.14s-3.77,0-3.77,0c-.3,0-.46-.16-.46-.46v-.48c0-.3.16-.46.46-.46h9.06c.3,0,.46.17.46.47Z"/><path class="cls-2" d="M430.3,110.76l-1.16-2.84h-6.04s-1.16,2.84-1.16,2.84c-.1.26-.26.36-.52.36h-.64c-.34,0-.48-.22-.36-.54l4.99-12.1c.1-.26.26-.36.52-.36h.4c.26,0,.42.1.52.36l4.97,12.11c.12.32-.02.54-.36.54h-.64c-.26,0-.42-.1-.52-.36ZM428.56,106.51l-2.46-6.06-2.44,6.06h4.9Z"/><path class="cls-2" d="M441.96,108.1l.48-.32c.26-.16.46-.1.62.18.64,1.02,2.1,1.88,4,1.88,2.24,0,3.18-.84,3.18-2.34,0-1.7-2.54-2.1-3.72-2.44-1.26-.34-4.46-.88-4.46-3.56,0-2.44,2.08-3.6,4.86-3.6,2.18,0,3.96.96,4.62,2.2.14.24.08.44-.18.6l-.48.28c-.26.14-.44.08-.62-.16-.56-.78-1.88-1.42-3.5-1.42-1.94,0-3,.76-3,2.04,0,1.6,2.32,1.94,3.6,2.28,1.16.34,4.54,1.02,4.54,3.72,0,2.56-1.86,3.9-4.98,3.9-2.58,0-4.4-1.1-5.16-2.62-.12-.24-.02-.46.2-.62Z"/></g></svg>